%TF.GenerationSoftware,KiCad,Pcbnew,(5.1.10)-1*%
%TF.CreationDate,2021-09-20T15:06:15+02:00*%
%TF.ProjectId,R6522decode,52363532-3264-4656-936f-64652e6b6963,rev?*%
%TF.SameCoordinates,Original*%
%TF.FileFunction,Soldermask,Bot*%
%TF.FilePolarity,Negative*%
%FSLAX46Y46*%
G04 Gerber Fmt 4.6, Leading zero omitted, Abs format (unit mm)*
G04 Created by KiCad (PCBNEW (5.1.10)-1) date 2021-09-20 15:06:15*
%MOMM*%
%LPD*%
G01*
G04 APERTURE LIST*
%ADD10R,1.700000X1.700000*%
%ADD11O,1.600000X1.600000*%
%ADD12R,1.600000X1.600000*%
G04 APERTURE END LIST*
D10*
%TO.C,J1*%
X108350000Y-75180000D03*
%TD*%
D11*
%TO.C,U1*%
X114665001Y-74435001D03*
X99425001Y-122695001D03*
X114665001Y-76975001D03*
X99425001Y-120155001D03*
X114665001Y-79515001D03*
X99425001Y-117615001D03*
X114665001Y-82055001D03*
X99425001Y-115075001D03*
X114665001Y-84595001D03*
X99425001Y-112535001D03*
X114665001Y-87135001D03*
X99425001Y-109995001D03*
X114665001Y-89675001D03*
X99425001Y-107455001D03*
X114665001Y-92215001D03*
X99425001Y-104915001D03*
X114665001Y-94755001D03*
X99425001Y-102375001D03*
X114665001Y-97295001D03*
X99425001Y-99835001D03*
X114665001Y-99835001D03*
X99425001Y-97295001D03*
X114665001Y-102375001D03*
X99425001Y-94755001D03*
X114665001Y-104915001D03*
X99425001Y-92215001D03*
X114665001Y-107455001D03*
X99425001Y-89675001D03*
X114665001Y-109995001D03*
X99425001Y-87135001D03*
X114665001Y-112535001D03*
X99425001Y-84595001D03*
X114665001Y-115075001D03*
X99425001Y-82055001D03*
X114665001Y-117615001D03*
X99425001Y-79515001D03*
X114665001Y-120155001D03*
X99425001Y-76975001D03*
X114665001Y-122695001D03*
D12*
X99425001Y-74435001D03*
%TD*%
%TO.C,U2*%
X101920000Y-74430000D03*
D11*
X117160000Y-122690000D03*
X101920000Y-76970000D03*
X117160000Y-120150000D03*
X101920000Y-79510000D03*
X117160000Y-117610000D03*
X101920000Y-82050000D03*
X117160000Y-115070000D03*
X101920000Y-84590000D03*
X117160000Y-112530000D03*
X101920000Y-87130000D03*
X117160000Y-109990000D03*
X101920000Y-89670000D03*
X117160000Y-107450000D03*
X101920000Y-92210000D03*
X117160000Y-104910000D03*
X101920000Y-94750000D03*
X117160000Y-102370000D03*
X101920000Y-97290000D03*
X117160000Y-99830000D03*
X101920000Y-99830000D03*
X117160000Y-97290000D03*
X101920000Y-102370000D03*
X117160000Y-94750000D03*
X101920000Y-104910000D03*
X117160000Y-92210000D03*
X101920000Y-107450000D03*
X117160000Y-89670000D03*
X101920000Y-109990000D03*
X117160000Y-87130000D03*
X101920000Y-112530000D03*
X117160000Y-84590000D03*
X101920000Y-115070000D03*
X117160000Y-82050000D03*
X101920000Y-117610000D03*
X117160000Y-79510000D03*
X101920000Y-120150000D03*
X117160000Y-76970000D03*
X101920000Y-122690000D03*
X117160000Y-74430000D03*
%TD*%
M02*
