%TF.GenerationSoftware,KiCad,Pcbnew,(5.1.10)-1*%
%TF.CreationDate,2021-09-20T15:06:15+02:00*%
%TF.ProjectId,R6522decode,52363532-3264-4656-936f-64652e6b6963,rev?*%
%TF.SameCoordinates,Original*%
%TF.FileFunction,Copper,L2,Bot*%
%TF.FilePolarity,Positive*%
%FSLAX46Y46*%
G04 Gerber Fmt 4.6, Leading zero omitted, Abs format (unit mm)*
G04 Created by KiCad (PCBNEW (5.1.10)-1) date 2021-09-20 15:06:15*
%MOMM*%
%LPD*%
G01*
G04 APERTURE LIST*
%TA.AperFunction,ComponentPad*%
%ADD10R,1.700000X1.700000*%
%TD*%
%TA.AperFunction,ComponentPad*%
%ADD11O,1.600000X1.600000*%
%TD*%
%TA.AperFunction,ComponentPad*%
%ADD12R,1.600000X1.600000*%
%TD*%
G04 APERTURE END LIST*
D10*
%TO.P,J1,1*%
%TO.N,/A9*%
X108350000Y-75180000D03*
%TD*%
D11*
%TO.P,U1,40*%
%TO.N,/CA1*%
X114665001Y-74435001D03*
%TO.P,U1,20*%
%TO.N,VCC*%
X99425001Y-122695001D03*
%TO.P,U1,39*%
%TO.N,/CA2*%
X114665001Y-76975001D03*
%TO.P,U1,19*%
%TO.N,/CB2*%
X99425001Y-120155001D03*
%TO.P,U1,38*%
%TO.N,/RS0*%
X114665001Y-79515001D03*
%TO.P,U1,18*%
%TO.N,/CB1*%
X99425001Y-117615001D03*
%TO.P,U1,37*%
%TO.N,/RS1*%
X114665001Y-82055001D03*
%TO.P,U1,17*%
%TO.N,/PB7*%
X99425001Y-115075001D03*
%TO.P,U1,36*%
%TO.N,/RS2*%
X114665001Y-84595001D03*
%TO.P,U1,16*%
%TO.N,/PB6*%
X99425001Y-112535001D03*
%TO.P,U1,35*%
%TO.N,/RS3*%
X114665001Y-87135001D03*
%TO.P,U1,15*%
%TO.N,/PB5*%
X99425001Y-109995001D03*
%TO.P,U1,34*%
%TO.N,/~RES*%
X114665001Y-89675001D03*
%TO.P,U1,14*%
%TO.N,/PB4*%
X99425001Y-107455001D03*
%TO.P,U1,33*%
%TO.N,/D0*%
X114665001Y-92215001D03*
%TO.P,U1,13*%
%TO.N,/PB3*%
X99425001Y-104915001D03*
%TO.P,U1,32*%
%TO.N,/D1*%
X114665001Y-94755001D03*
%TO.P,U1,12*%
%TO.N,/PB2*%
X99425001Y-102375001D03*
%TO.P,U1,31*%
%TO.N,/D2*%
X114665001Y-97295001D03*
%TO.P,U1,11*%
%TO.N,/PB1*%
X99425001Y-99835001D03*
%TO.P,U1,30*%
%TO.N,/D3*%
X114665001Y-99835001D03*
%TO.P,U1,10*%
%TO.N,/PB0*%
X99425001Y-97295001D03*
%TO.P,U1,29*%
%TO.N,/D4*%
X114665001Y-102375001D03*
%TO.P,U1,9*%
%TO.N,/PA7*%
X99425001Y-94755001D03*
%TO.P,U1,28*%
%TO.N,/D5*%
X114665001Y-104915001D03*
%TO.P,U1,8*%
%TO.N,/PA6*%
X99425001Y-92215001D03*
%TO.P,U1,27*%
%TO.N,/D6*%
X114665001Y-107455001D03*
%TO.P,U1,7*%
%TO.N,/PA5*%
X99425001Y-89675001D03*
%TO.P,U1,26*%
%TO.N,/D7*%
X114665001Y-109995001D03*
%TO.P,U1,6*%
%TO.N,/PA4*%
X99425001Y-87135001D03*
%TO.P,U1,25*%
%TO.N,/Phi2*%
X114665001Y-112535001D03*
%TO.P,U1,5*%
%TO.N,/PA3*%
X99425001Y-84595001D03*
%TO.P,U1,24*%
%TO.N,/CS1*%
X114665001Y-115075001D03*
%TO.P,U1,4*%
%TO.N,/PA2*%
X99425001Y-82055001D03*
%TO.P,U1,23*%
%TO.N,/~CS2*%
X114665001Y-117615001D03*
%TO.P,U1,3*%
%TO.N,/PA1*%
X99425001Y-79515001D03*
%TO.P,U1,22*%
%TO.N,/R~W*%
X114665001Y-120155001D03*
%TO.P,U1,2*%
%TO.N,/PA0*%
X99425001Y-76975001D03*
%TO.P,U1,21*%
%TO.N,/~IRQ*%
X114665001Y-122695001D03*
D12*
%TO.P,U1,1*%
%TO.N,GND*%
X99425001Y-74435001D03*
%TD*%
%TO.P,U2,1*%
%TO.N,GND*%
X101920000Y-74430000D03*
D11*
%TO.P,U2,21*%
%TO.N,/~IRQ*%
X117160000Y-122690000D03*
%TO.P,U2,2*%
%TO.N,/PA0*%
X101920000Y-76970000D03*
%TO.P,U2,22*%
%TO.N,/R~W*%
X117160000Y-120150000D03*
%TO.P,U2,3*%
%TO.N,/PA1*%
X101920000Y-79510000D03*
%TO.P,U2,23*%
%TO.N,/~NCS2*%
X117160000Y-117610000D03*
%TO.P,U2,4*%
%TO.N,/PA2*%
X101920000Y-82050000D03*
%TO.P,U2,24*%
%TO.N,/CS1*%
X117160000Y-115070000D03*
%TO.P,U2,5*%
%TO.N,/PA3*%
X101920000Y-84590000D03*
%TO.P,U2,25*%
%TO.N,/Phi2*%
X117160000Y-112530000D03*
%TO.P,U2,6*%
%TO.N,/PA4*%
X101920000Y-87130000D03*
%TO.P,U2,26*%
%TO.N,/D7*%
X117160000Y-109990000D03*
%TO.P,U2,7*%
%TO.N,/PA5*%
X101920000Y-89670000D03*
%TO.P,U2,27*%
%TO.N,/D6*%
X117160000Y-107450000D03*
%TO.P,U2,8*%
%TO.N,/PA6*%
X101920000Y-92210000D03*
%TO.P,U2,28*%
%TO.N,/D5*%
X117160000Y-104910000D03*
%TO.P,U2,9*%
%TO.N,/PA7*%
X101920000Y-94750000D03*
%TO.P,U2,29*%
%TO.N,/D4*%
X117160000Y-102370000D03*
%TO.P,U2,10*%
%TO.N,/PB0*%
X101920000Y-97290000D03*
%TO.P,U2,30*%
%TO.N,/D3*%
X117160000Y-99830000D03*
%TO.P,U2,11*%
%TO.N,/PB1*%
X101920000Y-99830000D03*
%TO.P,U2,31*%
%TO.N,/D2*%
X117160000Y-97290000D03*
%TO.P,U2,12*%
%TO.N,/PB2*%
X101920000Y-102370000D03*
%TO.P,U2,32*%
%TO.N,/D1*%
X117160000Y-94750000D03*
%TO.P,U2,13*%
%TO.N,/PB3*%
X101920000Y-104910000D03*
%TO.P,U2,33*%
%TO.N,/D0*%
X117160000Y-92210000D03*
%TO.P,U2,14*%
%TO.N,/PB4*%
X101920000Y-107450000D03*
%TO.P,U2,34*%
%TO.N,/~RES*%
X117160000Y-89670000D03*
%TO.P,U2,15*%
%TO.N,/PB5*%
X101920000Y-109990000D03*
%TO.P,U2,35*%
%TO.N,/RS3*%
X117160000Y-87130000D03*
%TO.P,U2,16*%
%TO.N,/PB6*%
X101920000Y-112530000D03*
%TO.P,U2,36*%
%TO.N,/RS2*%
X117160000Y-84590000D03*
%TO.P,U2,17*%
%TO.N,/PB7*%
X101920000Y-115070000D03*
%TO.P,U2,37*%
%TO.N,/RS1*%
X117160000Y-82050000D03*
%TO.P,U2,18*%
%TO.N,/CB1*%
X101920000Y-117610000D03*
%TO.P,U2,38*%
%TO.N,/RS0*%
X117160000Y-79510000D03*
%TO.P,U2,19*%
%TO.N,/CB2*%
X101920000Y-120150000D03*
%TO.P,U2,39*%
%TO.N,/CA2*%
X117160000Y-76970000D03*
%TO.P,U2,20*%
%TO.N,VCC*%
X101920000Y-122690000D03*
%TO.P,U2,40*%
%TO.N,/CA1*%
X117160000Y-74430000D03*
%TD*%
M02*
