M48
; DRILL file {KiCad (5.1.10)-1} date 09/20/21 15:06:17
; FORMAT={-:-/ absolute / metric / decimal}
; #@! TF.CreationDate,2021-09-20T15:06:17+02:00
; #@! TF.GenerationSoftware,Kicad,Pcbnew,(5.1.10)-1
; #@! TF.FileFunction,Plated,1,2,PTH
FMAT,2
METRIC
T1C0.800
T2C1.000
%
G90
G05
T1
X99.425Y-74.435
X99.425Y-76.975
X99.425Y-79.515
X99.425Y-82.055
X99.425Y-84.595
X99.425Y-87.135
X99.425Y-89.675
X99.425Y-92.215
X99.425Y-94.755
X99.425Y-97.295
X99.425Y-99.835
X99.425Y-102.375
X99.425Y-104.915
X99.425Y-107.455
X99.425Y-109.995
X99.425Y-112.535
X99.425Y-115.075
X99.425Y-117.615
X99.425Y-120.155
X99.425Y-122.695
X101.92Y-74.43
X101.92Y-76.97
X101.92Y-79.51
X101.92Y-82.05
X101.92Y-84.59
X101.92Y-87.13
X101.92Y-89.67
X101.92Y-92.21
X101.92Y-94.75
X101.92Y-97.29
X101.92Y-99.83
X101.92Y-102.37
X101.92Y-104.91
X101.92Y-107.45
X101.92Y-109.99
X101.92Y-112.53
X101.92Y-115.07
X101.92Y-117.61
X101.92Y-120.15
X101.92Y-122.69
X114.665Y-74.435
X114.665Y-76.975
X114.665Y-79.515
X114.665Y-82.055
X114.665Y-84.595
X114.665Y-87.135
X114.665Y-89.675
X114.665Y-92.215
X114.665Y-94.755
X114.665Y-97.295
X114.665Y-99.835
X114.665Y-102.375
X114.665Y-104.915
X114.665Y-107.455
X114.665Y-109.995
X114.665Y-112.535
X114.665Y-115.075
X114.665Y-117.615
X114.665Y-120.155
X114.665Y-122.695
X117.16Y-74.43
X117.16Y-76.97
X117.16Y-79.51
X117.16Y-82.05
X117.16Y-84.59
X117.16Y-87.13
X117.16Y-89.67
X117.16Y-92.21
X117.16Y-94.75
X117.16Y-97.29
X117.16Y-99.83
X117.16Y-102.37
X117.16Y-104.91
X117.16Y-107.45
X117.16Y-109.99
X117.16Y-112.53
X117.16Y-115.07
X117.16Y-117.61
X117.16Y-120.15
X117.16Y-122.69
T2
X108.35Y-75.18
T0
M30
