M48
; DRILL file {KiCad (5.1.10)-1} date 09/10/21 13:11:40
; FORMAT={-:-/ absolute / metric / decimal}
; #@! TF.CreationDate,2021-09-10T13:11:40+02:00
; #@! TF.GenerationSoftware,Kicad,Pcbnew,(5.1.10)-1
; #@! TF.FileFunction,Plated,1,2,PTH
FMAT,2
METRIC
T1C0.400
T2C0.800
%
G90
G05
T1
X139.34Y-98.11
X139.67Y-104.15
X141.65Y-101.28
X142.65Y-106.68
X145.32Y-100.66
X145.97Y-108.62
X160.15Y-123.57
X160.97Y-122.57
X161.64Y-121.55
X162.01Y-110.9
X162.24Y-120.45
X162.92Y-119.42
X163.53Y-118.31
X164.31Y-117.28
X165.21Y-116.11
X166.59Y-110.05
X167.42Y-115.81
T2
X133.0Y-83.0
X133.0Y-85.54
X133.0Y-88.08
X133.0Y-90.62
X133.0Y-93.16
X133.0Y-95.7
X133.0Y-98.24
X133.0Y-100.78
X133.0Y-103.32
X133.0Y-105.86
X133.0Y-108.4
X133.0Y-110.94
X133.0Y-113.48
X133.0Y-116.02
X133.0Y-118.56
X133.0Y-121.1
X133.0Y-123.64
X133.0Y-126.18
X133.0Y-128.72
X133.0Y-131.26
X136.0Y-83.0
X136.0Y-85.54
X136.0Y-88.08
X136.0Y-90.62
X136.0Y-93.16
X136.0Y-95.7
X136.0Y-98.24
X136.0Y-100.78
X136.0Y-103.32
X136.0Y-105.86
X136.0Y-108.4
X136.0Y-110.94
X136.0Y-113.48
X136.0Y-116.02
X136.0Y-118.56
X136.0Y-121.1
X136.0Y-123.64
X136.0Y-126.18
X136.0Y-128.72
X136.0Y-131.26
X148.24Y-83.0
X148.24Y-85.54
X148.24Y-88.08
X148.24Y-90.62
X148.24Y-93.16
X148.24Y-95.7
X148.24Y-98.24
X148.24Y-100.78
X148.24Y-103.32
X148.24Y-105.86
X148.24Y-108.4
X148.24Y-110.94
X148.24Y-113.48
X148.24Y-116.02
X148.24Y-118.56
X148.24Y-121.1
X148.24Y-123.64
X148.24Y-126.18
X148.24Y-128.72
X148.24Y-131.26
X151.24Y-83.0
X151.24Y-85.54
X151.24Y-88.08
X151.24Y-90.62
X151.24Y-93.16
X151.24Y-95.7
X151.24Y-98.24
X151.24Y-100.78
X151.24Y-103.32
X151.24Y-105.86
X151.24Y-108.4
X151.24Y-110.94
X151.24Y-113.48
X151.24Y-116.02
X151.24Y-118.56
X151.24Y-121.1
X151.24Y-123.64
X151.24Y-126.18
X151.24Y-128.72
X151.24Y-131.26
T0
M30
