%TF.GenerationSoftware,KiCad,Pcbnew,(5.1.10)-1*%
%TF.CreationDate,2021-09-20T13:18:37+02:00*%
%TF.ProjectId,SensibleRAM,53656e73-6962-46c6-9552-414d2e6b6963,rev?*%
%TF.SameCoordinates,Original*%
%TF.FileFunction,Copper,L2,Bot*%
%TF.FilePolarity,Positive*%
%FSLAX46Y46*%
G04 Gerber Fmt 4.6, Leading zero omitted, Abs format (unit mm)*
G04 Created by KiCad (PCBNEW (5.1.10)-1) date 2021-09-20 13:18:37*
%MOMM*%
%LPD*%
G01*
G04 APERTURE LIST*
%TA.AperFunction,ComponentPad*%
%ADD10O,1.600000X1.600000*%
%TD*%
%TA.AperFunction,ComponentPad*%
%ADD11R,1.600000X1.600000*%
%TD*%
%TA.AperFunction,ViaPad*%
%ADD12C,0.800000*%
%TD*%
%TA.AperFunction,Conductor*%
%ADD13C,0.250000*%
%TD*%
G04 APERTURE END LIST*
D10*
%TO.P,U1,40*%
%TO.N,VCC*%
X148240000Y-83000000D03*
%TO.P,U1,20*%
%TO.N,GND*%
X133000000Y-131260000D03*
%TO.P,U1,39*%
%TO.N,/P1*%
X148240000Y-85540000D03*
%TO.P,U1,19*%
%TO.N,/Aud*%
X133000000Y-128720000D03*
%TO.P,U1,38*%
%TO.N,/P2*%
X148240000Y-88080000D03*
%TO.P,U1,18*%
%TO.N,/PotY*%
X133000000Y-126180000D03*
%TO.P,U1,37*%
%TO.N,/LPen*%
X148240000Y-90620000D03*
%TO.P,U1,17*%
%TO.N,/PotX*%
X133000000Y-123640000D03*
%TO.P,U1,36*%
%TO.N,/PP2*%
X148240000Y-93160000D03*
%TO.P,U1,16*%
%TO.N,/D0*%
X133000000Y-121100000D03*
%TO.P,U1,35*%
%TO.N,/PP1*%
X148240000Y-95700000D03*
%TO.P,U1,15*%
%TO.N,/D1*%
X133000000Y-118560000D03*
%TO.P,U1,34*%
%TO.N,/A13*%
X148240000Y-98240000D03*
%TO.P,U1,14*%
%TO.N,/D2*%
X133000000Y-116020000D03*
%TO.P,U1,33*%
%TO.N,/A12*%
X148240000Y-100780000D03*
%TO.P,U1,13*%
%TO.N,/D3*%
X133000000Y-113480000D03*
%TO.P,U1,32*%
%TO.N,/A11*%
X148240000Y-103320000D03*
%TO.P,U1,12*%
%TO.N,/D4*%
X133000000Y-110940000D03*
%TO.P,U1,31*%
%TO.N,/A10*%
X148240000Y-105860000D03*
%TO.P,U1,11*%
%TO.N,/D5*%
X133000000Y-108400000D03*
%TO.P,U1,30*%
%TO.N,/A9*%
X148240000Y-108400000D03*
%TO.P,U1,10*%
%TO.N,/D6*%
X133000000Y-105860000D03*
%TO.P,U1,29*%
%TO.N,/A8*%
X148240000Y-110940000D03*
%TO.P,U1,9*%
%TO.N,/D7*%
X133000000Y-103320000D03*
%TO.P,U1,28*%
%TO.N,/A7*%
X148240000Y-113480000D03*
%TO.P,U1,8*%
%TO.N,/VD8*%
X133000000Y-100780000D03*
%TO.P,U1,27*%
%TO.N,/A6*%
X148240000Y-116020000D03*
%TO.P,U1,7*%
%TO.N,/VD9*%
X133000000Y-98240000D03*
%TO.P,U1,26*%
%TO.N,/A5*%
X148240000Y-118560000D03*
%TO.P,U1,6*%
%TO.N,/VD10*%
X133000000Y-95700000D03*
%TO.P,U1,25*%
%TO.N,/A4*%
X148240000Y-121100000D03*
%TO.P,U1,5*%
%TO.N,/VD11*%
X133000000Y-93160000D03*
%TO.P,U1,24*%
%TO.N,/A3*%
X148240000Y-123640000D03*
%TO.P,U1,4*%
%TO.N,/R~W*%
X133000000Y-90620000D03*
%TO.P,U1,23*%
%TO.N,/A2*%
X148240000Y-126180000D03*
%TO.P,U1,3*%
%TO.N,/LMS*%
X133000000Y-88080000D03*
%TO.P,U1,22*%
%TO.N,/A1*%
X148240000Y-128720000D03*
%TO.P,U1,2*%
%TO.N,/Chrm*%
X133000000Y-85540000D03*
%TO.P,U1,21*%
%TO.N,/A0*%
X148240000Y-131260000D03*
D11*
%TO.P,U1,1*%
%TO.N,N/C*%
X133000000Y-83000000D03*
%TD*%
%TO.P,U2,1*%
%TO.N,N/C*%
X136000000Y-83000000D03*
D10*
%TO.P,U2,21*%
%TO.N,/A0*%
X151240000Y-131260000D03*
%TO.P,U2,2*%
%TO.N,/Chrm*%
X136000000Y-85540000D03*
%TO.P,U2,22*%
%TO.N,/A1*%
X151240000Y-128720000D03*
%TO.P,U2,3*%
%TO.N,/LMS*%
X136000000Y-88080000D03*
%TO.P,U2,23*%
%TO.N,/A2*%
X151240000Y-126180000D03*
%TO.P,U2,4*%
%TO.N,/R~W*%
X136000000Y-90620000D03*
%TO.P,U2,24*%
%TO.N,/A3*%
X151240000Y-123640000D03*
%TO.P,U2,5*%
%TO.N,/VD11*%
X136000000Y-93160000D03*
%TO.P,U2,25*%
%TO.N,/A4*%
X151240000Y-121100000D03*
%TO.P,U2,6*%
%TO.N,/VD10*%
X136000000Y-95700000D03*
%TO.P,U2,26*%
%TO.N,/A5*%
X151240000Y-118560000D03*
%TO.P,U2,7*%
%TO.N,/VD9*%
X136000000Y-98240000D03*
%TO.P,U2,27*%
%TO.N,/A6*%
X151240000Y-116020000D03*
%TO.P,U2,8*%
%TO.N,/VD8*%
X136000000Y-100780000D03*
%TO.P,U2,28*%
%TO.N,/A7*%
X151240000Y-113480000D03*
%TO.P,U2,9*%
%TO.N,/D7*%
X136000000Y-103320000D03*
%TO.P,U2,29*%
%TO.N,/A8*%
X151240000Y-110940000D03*
%TO.P,U2,10*%
%TO.N,/D6*%
X136000000Y-105860000D03*
%TO.P,U2,30*%
%TO.N,/A9*%
X151240000Y-108400000D03*
%TO.P,U2,11*%
%TO.N,/D5*%
X136000000Y-108400000D03*
%TO.P,U2,31*%
%TO.N,/A10*%
X151240000Y-105860000D03*
%TO.P,U2,12*%
%TO.N,/D4*%
X136000000Y-110940000D03*
%TO.P,U2,32*%
%TO.N,/A11*%
X151240000Y-103320000D03*
%TO.P,U2,13*%
%TO.N,/D3*%
X136000000Y-113480000D03*
%TO.P,U2,33*%
%TO.N,/A12*%
X151240000Y-100780000D03*
%TO.P,U2,14*%
%TO.N,/D2*%
X136000000Y-116020000D03*
%TO.P,U2,34*%
%TO.N,/A13*%
X151240000Y-98240000D03*
%TO.P,U2,15*%
%TO.N,/D1*%
X136000000Y-118560000D03*
%TO.P,U2,35*%
%TO.N,/PP1*%
X151240000Y-95700000D03*
%TO.P,U2,16*%
%TO.N,/D0*%
X136000000Y-121100000D03*
%TO.P,U2,36*%
%TO.N,/PP2*%
X151240000Y-93160000D03*
%TO.P,U2,17*%
%TO.N,/PotX*%
X136000000Y-123640000D03*
%TO.P,U2,37*%
%TO.N,/LPen*%
X151240000Y-90620000D03*
%TO.P,U2,18*%
%TO.N,/PotY*%
X136000000Y-126180000D03*
%TO.P,U2,38*%
%TO.N,/P2*%
X151240000Y-88080000D03*
%TO.P,U2,19*%
%TO.N,/Aud*%
X136000000Y-128720000D03*
%TO.P,U2,39*%
%TO.N,/P1*%
X151240000Y-85540000D03*
%TO.P,U2,20*%
%TO.N,GND*%
X136000000Y-131260000D03*
%TO.P,U2,40*%
%TO.N,VCC*%
X151240000Y-83000000D03*
%TD*%
D12*
%TO.N,/D0*%
X161640000Y-121550000D03*
%TO.N,/D1*%
X160970000Y-122570000D03*
%TO.N,/D2*%
X160150000Y-123570000D03*
%TO.N,/D3*%
X162240000Y-120450000D03*
%TO.N,/D4*%
X162920000Y-119420000D03*
%TO.N,/A10*%
X139670000Y-104150000D03*
X145970000Y-108620000D03*
%TO.N,/D5*%
X163530000Y-118310000D03*
%TO.N,/A9*%
X141650000Y-101280000D03*
%TO.N,/D6*%
X164310000Y-117280000D03*
%TO.N,/A8*%
X162010000Y-110900000D03*
%TO.N,/D7*%
X165210000Y-116110000D03*
%TO.N,/R~W*%
X166590000Y-110050000D03*
%TO.N,Net-(U3-Pad4)*%
X142650000Y-106680000D03*
X139340000Y-98110000D03*
%TO.N,MSel*%
X145320000Y-100660000D03*
X167420000Y-115810000D03*
%TD*%
D13*
%TO.N,/D0*%
X139430000Y-121100000D02*
X136000000Y-121100000D01*
X140600000Y-122270000D02*
X139430000Y-121100000D01*
X140600000Y-125790000D02*
X140600000Y-122270000D01*
X155040000Y-132680000D02*
X147490000Y-132680000D01*
X147490000Y-132680000D02*
X140600000Y-125790000D01*
X162100000Y-125620000D02*
X155040000Y-132680000D01*
X162100000Y-122010000D02*
X162100000Y-125620000D01*
X161640000Y-121550000D02*
X162100000Y-122010000D01*
%TO.N,/D1*%
X137950000Y-118560000D02*
X136000000Y-118560000D01*
X141090000Y-124080000D02*
X141090000Y-121700000D01*
X147010000Y-130000000D02*
X141090000Y-124080000D01*
X156230000Y-130000000D02*
X147010000Y-130000000D01*
X161280000Y-122880000D02*
X161280000Y-124950000D01*
X161280000Y-124950000D02*
X156230000Y-130000000D01*
X160970000Y-122570000D02*
X161280000Y-122880000D01*
X141090000Y-121700000D02*
X137950000Y-118560000D01*
%TO.N,/D2*%
X137960000Y-116020000D02*
X136000000Y-116020000D01*
X141540000Y-119600000D02*
X137960000Y-116020000D01*
X145180000Y-127420000D02*
X141540000Y-123780000D01*
X157030000Y-127420000D02*
X145180000Y-127420000D01*
X141540000Y-123780000D02*
X141540000Y-119600000D01*
X160150000Y-124300000D02*
X157030000Y-127420000D01*
X160150000Y-123570000D02*
X160150000Y-124300000D01*
%TO.N,/D3*%
X146340000Y-124790000D02*
X144520000Y-122970000D01*
X157100000Y-120580000D02*
X152890000Y-124790000D01*
X162110000Y-120580000D02*
X157100000Y-120580000D01*
X140430000Y-113480000D02*
X136000000Y-113480000D01*
X162240000Y-120450000D02*
X162110000Y-120580000D01*
X144520000Y-117570000D02*
X140430000Y-113480000D01*
X144520000Y-122970000D02*
X144520000Y-117570000D01*
X152890000Y-124790000D02*
X146340000Y-124790000D01*
%TO.N,/D4*%
X138560000Y-110940000D02*
X136000000Y-110940000D01*
X145270000Y-117650000D02*
X138560000Y-110940000D01*
X145270000Y-121930000D02*
X145270000Y-117650000D01*
X145680000Y-122340000D02*
X145270000Y-121930000D01*
X152830000Y-122340000D02*
X145680000Y-122340000D01*
X155750000Y-119420000D02*
X152830000Y-122340000D01*
X162920000Y-119420000D02*
X155750000Y-119420000D01*
%TO.N,/A10*%
X139670000Y-104150000D02*
X141120000Y-105600000D01*
X141120000Y-105600000D02*
X145150000Y-105600000D01*
X145970000Y-106420000D02*
X145970000Y-108620000D01*
X145150000Y-105600000D02*
X145970000Y-106420000D01*
%TO.N,/D5*%
X146080000Y-117800000D02*
X136770000Y-108490000D01*
X146080000Y-118780000D02*
X146080000Y-117800000D01*
X136770000Y-108490000D02*
X136090000Y-108490000D01*
X147050000Y-119750000D02*
X146080000Y-118780000D01*
X153610000Y-119750000D02*
X147050000Y-119750000D01*
X163270000Y-118050000D02*
X155310000Y-118050000D01*
X136090000Y-108490000D02*
X136000000Y-108400000D01*
X155310000Y-118050000D02*
X153610000Y-119750000D01*
X163530000Y-118310000D02*
X163270000Y-118050000D01*
%TO.N,/A9*%
X141650000Y-101280000D02*
X142130000Y-101760000D01*
X142130000Y-101760000D02*
X145290000Y-101760000D01*
X145290000Y-101760000D02*
X146490000Y-102960000D01*
X146490000Y-102960000D02*
X146490000Y-107790000D01*
X147100000Y-108400000D02*
X148240000Y-108400000D01*
X146490000Y-107790000D02*
X147100000Y-108400000D01*
%TO.N,/D6*%
X137890000Y-106550000D02*
X137200000Y-105860000D01*
X137200000Y-105860000D02*
X136000000Y-105860000D01*
X137890000Y-108910000D02*
X137890000Y-106550000D01*
X146180000Y-117200000D02*
X137890000Y-108910000D01*
X164230000Y-117200000D02*
X146180000Y-117200000D01*
X164310000Y-117280000D02*
X164230000Y-117200000D01*
%TO.N,/A8*%
X161970000Y-110940000D02*
X151240000Y-110940000D01*
X162010000Y-110900000D02*
X161970000Y-110940000D01*
%TO.N,/D7*%
X137310000Y-103320000D02*
X136000000Y-103320000D01*
X138350000Y-108730000D02*
X138350000Y-104360000D01*
X144230000Y-114610000D02*
X138350000Y-108730000D01*
X163710000Y-114610000D02*
X144230000Y-114610000D01*
X138350000Y-104360000D02*
X137310000Y-103320000D01*
X165210000Y-116110000D02*
X163710000Y-114610000D01*
%TO.N,/R~W*%
X136000000Y-90620000D02*
X145150000Y-90620000D01*
X145150000Y-90620000D02*
X146330000Y-91800000D01*
X146330000Y-91800000D02*
X154000000Y-91800000D01*
X166590000Y-104390000D02*
X166590000Y-110050000D01*
X154000000Y-91800000D02*
X166590000Y-104390000D01*
%TO.N,Net-(U3-Pad4)*%
X138850000Y-98600000D02*
X139340000Y-98110000D01*
X138850000Y-104420000D02*
X138850000Y-98600000D01*
X140660000Y-106230000D02*
X138850000Y-104420000D01*
X142200000Y-106230000D02*
X140660000Y-106230000D01*
X142650000Y-106680000D02*
X142200000Y-106230000D01*
%TO.N,MSel*%
X145320000Y-100660000D02*
X146510000Y-101850000D01*
X146510000Y-101850000D02*
X146870000Y-101850000D01*
X146870000Y-101850000D02*
X146990000Y-101970000D01*
X146990000Y-101970000D02*
X162270000Y-101970000D01*
X162270000Y-101970000D02*
X165660000Y-105360000D01*
X165660000Y-105360000D02*
X165660000Y-114880000D01*
X166590000Y-115810000D02*
X167420000Y-115810000D01*
X165660000Y-114880000D02*
X166590000Y-115810000D01*
%TD*%
M02*
