%TF.GenerationSoftware,KiCad,Pcbnew,(5.1.10)-1*%
%TF.CreationDate,2021-09-20T13:18:37+02:00*%
%TF.ProjectId,SensibleRAM,53656e73-6962-46c6-9552-414d2e6b6963,rev?*%
%TF.SameCoordinates,Original*%
%TF.FileFunction,Legend,Top*%
%TF.FilePolarity,Positive*%
%FSLAX46Y46*%
G04 Gerber Fmt 4.6, Leading zero omitted, Abs format (unit mm)*
G04 Created by KiCad (PCBNEW (5.1.10)-1) date 2021-09-20 13:18:37*
%MOMM*%
%LPD*%
G01*
G04 APERTURE LIST*
%ADD10C,0.150000*%
%ADD11C,0.200000*%
%ADD12C,0.250000*%
%ADD13C,0.120000*%
G04 APERTURE END LIST*
D10*
X158068095Y-88725476D02*
X157972857Y-88677857D01*
X157782380Y-88677857D01*
X157687142Y-88725476D01*
X157591904Y-88820714D01*
X157544285Y-88915952D01*
X157544285Y-89106428D01*
X157591904Y-89201666D01*
X157687142Y-89296904D01*
X157782380Y-89344523D01*
X157972857Y-89344523D01*
X158068095Y-89296904D01*
X157877619Y-88344523D02*
X157639523Y-88392142D01*
X157401428Y-88535000D01*
X157258571Y-88773095D01*
X157210952Y-89011190D01*
X157258571Y-89249285D01*
X157401428Y-89487380D01*
X157639523Y-89630238D01*
X157877619Y-89677857D01*
X158115714Y-89630238D01*
X158353809Y-89487380D01*
X158496666Y-89249285D01*
X158544285Y-89011190D01*
X158496666Y-88773095D01*
X158353809Y-88535000D01*
X158115714Y-88392142D01*
X157877619Y-88344523D01*
X158925238Y-88582619D02*
X158972857Y-88535000D01*
X159068095Y-88487380D01*
X159306190Y-88487380D01*
X159401428Y-88535000D01*
X159449047Y-88582619D01*
X159496666Y-88677857D01*
X159496666Y-88773095D01*
X159449047Y-88915952D01*
X158877619Y-89487380D01*
X159496666Y-89487380D01*
X160115714Y-88487380D02*
X160210952Y-88487380D01*
X160306190Y-88535000D01*
X160353809Y-88582619D01*
X160401428Y-88677857D01*
X160449047Y-88868333D01*
X160449047Y-89106428D01*
X160401428Y-89296904D01*
X160353809Y-89392142D01*
X160306190Y-89439761D01*
X160210952Y-89487380D01*
X160115714Y-89487380D01*
X160020476Y-89439761D01*
X159972857Y-89392142D01*
X159925238Y-89296904D01*
X159877619Y-89106428D01*
X159877619Y-88868333D01*
X159925238Y-88677857D01*
X159972857Y-88582619D01*
X160020476Y-88535000D01*
X160115714Y-88487380D01*
X160830000Y-88582619D02*
X160877619Y-88535000D01*
X160972857Y-88487380D01*
X161210952Y-88487380D01*
X161306190Y-88535000D01*
X161353809Y-88582619D01*
X161401428Y-88677857D01*
X161401428Y-88773095D01*
X161353809Y-88915952D01*
X160782380Y-89487380D01*
X161401428Y-89487380D01*
X162353809Y-89487380D02*
X161782380Y-89487380D01*
X162068095Y-89487380D02*
X162068095Y-88487380D01*
X161972857Y-88630238D01*
X161877619Y-88725476D01*
X161782380Y-88773095D01*
X163544285Y-89487380D02*
X163544285Y-88487380D01*
X163544285Y-88963571D02*
X164115714Y-88963571D01*
X164115714Y-89487380D02*
X164115714Y-88487380D01*
X165020476Y-89487380D02*
X165020476Y-88963571D01*
X164972857Y-88868333D01*
X164877619Y-88820714D01*
X164687142Y-88820714D01*
X164591904Y-88868333D01*
X165020476Y-89439761D02*
X164925238Y-89487380D01*
X164687142Y-89487380D01*
X164591904Y-89439761D01*
X164544285Y-89344523D01*
X164544285Y-89249285D01*
X164591904Y-89154047D01*
X164687142Y-89106428D01*
X164925238Y-89106428D01*
X165020476Y-89058809D01*
X165496666Y-88820714D02*
X165496666Y-89487380D01*
X165496666Y-88915952D02*
X165544285Y-88868333D01*
X165639523Y-88820714D01*
X165782380Y-88820714D01*
X165877619Y-88868333D01*
X165925238Y-88963571D01*
X165925238Y-89487380D01*
X166353809Y-89439761D02*
X166449047Y-89487380D01*
X166639523Y-89487380D01*
X166734761Y-89439761D01*
X166782380Y-89344523D01*
X166782380Y-89296904D01*
X166734761Y-89201666D01*
X166639523Y-89154047D01*
X166496666Y-89154047D01*
X166401428Y-89106428D01*
X166353809Y-89011190D01*
X166353809Y-88963571D01*
X166401428Y-88868333D01*
X166496666Y-88820714D01*
X166639523Y-88820714D01*
X166734761Y-88868333D01*
X168449047Y-89487380D02*
X167972857Y-89487380D01*
X167972857Y-88487380D01*
X168782380Y-89487380D02*
X168782380Y-88820714D01*
X168782380Y-88487380D02*
X168734761Y-88535000D01*
X168782380Y-88582619D01*
X168830000Y-88535000D01*
X168782380Y-88487380D01*
X168782380Y-88582619D01*
X169210952Y-89439761D02*
X169306190Y-89487380D01*
X169496666Y-89487380D01*
X169591904Y-89439761D01*
X169639523Y-89344523D01*
X169639523Y-89296904D01*
X169591904Y-89201666D01*
X169496666Y-89154047D01*
X169353809Y-89154047D01*
X169258571Y-89106428D01*
X169210952Y-89011190D01*
X169210952Y-88963571D01*
X169258571Y-88868333D01*
X169353809Y-88820714D01*
X169496666Y-88820714D01*
X169591904Y-88868333D01*
X170020476Y-89439761D02*
X170115714Y-89487380D01*
X170306190Y-89487380D01*
X170401428Y-89439761D01*
X170449047Y-89344523D01*
X170449047Y-89296904D01*
X170401428Y-89201666D01*
X170306190Y-89154047D01*
X170163333Y-89154047D01*
X170068095Y-89106428D01*
X170020476Y-89011190D01*
X170020476Y-88963571D01*
X170068095Y-88868333D01*
X170163333Y-88820714D01*
X170306190Y-88820714D01*
X170401428Y-88868333D01*
X157925238Y-91137380D02*
X157925238Y-90137380D01*
X157925238Y-90613571D02*
X158496666Y-90613571D01*
X158496666Y-91137380D02*
X158496666Y-90137380D01*
X159401428Y-91137380D02*
X159401428Y-90613571D01*
X159353809Y-90518333D01*
X159258571Y-90470714D01*
X159068095Y-90470714D01*
X158972857Y-90518333D01*
X159401428Y-91089761D02*
X159306190Y-91137380D01*
X159068095Y-91137380D01*
X158972857Y-91089761D01*
X158925238Y-90994523D01*
X158925238Y-90899285D01*
X158972857Y-90804047D01*
X159068095Y-90756428D01*
X159306190Y-90756428D01*
X159401428Y-90708809D01*
X159877619Y-90470714D02*
X159877619Y-91137380D01*
X159877619Y-90565952D02*
X159925238Y-90518333D01*
X160020476Y-90470714D01*
X160163333Y-90470714D01*
X160258571Y-90518333D01*
X160306190Y-90613571D01*
X160306190Y-91137380D01*
X160734761Y-91089761D02*
X160830000Y-91137380D01*
X161020476Y-91137380D01*
X161115714Y-91089761D01*
X161163333Y-90994523D01*
X161163333Y-90946904D01*
X161115714Y-90851666D01*
X161020476Y-90804047D01*
X160877619Y-90804047D01*
X160782380Y-90756428D01*
X160734761Y-90661190D01*
X160734761Y-90613571D01*
X160782380Y-90518333D01*
X160877619Y-90470714D01*
X161020476Y-90470714D01*
X161115714Y-90518333D01*
X162210952Y-90661190D02*
X162163333Y-90613571D01*
X162068095Y-90565952D01*
X161972857Y-90565952D01*
X161877619Y-90613571D01*
X161830000Y-90661190D01*
X161782380Y-90756428D01*
X161782380Y-90851666D01*
X161830000Y-90946904D01*
X161877619Y-90994523D01*
X161972857Y-91042142D01*
X162068095Y-91042142D01*
X162163333Y-90994523D01*
X162210952Y-90946904D01*
X162210952Y-90565952D02*
X162210952Y-90946904D01*
X162258571Y-90994523D01*
X162306190Y-90994523D01*
X162401428Y-90946904D01*
X162449047Y-90851666D01*
X162449047Y-90613571D01*
X162353809Y-90470714D01*
X162210952Y-90375476D01*
X162020476Y-90327857D01*
X161830000Y-90375476D01*
X161687142Y-90470714D01*
X161591904Y-90613571D01*
X161544285Y-90804047D01*
X161591904Y-90994523D01*
X161687142Y-91137380D01*
X161830000Y-91232619D01*
X162020476Y-91280238D01*
X162210952Y-91232619D01*
X162353809Y-91137380D01*
X163353809Y-91137380D02*
X162877619Y-91137380D01*
X162877619Y-90137380D01*
X163687142Y-91137380D02*
X163687142Y-90470714D01*
X163687142Y-90137380D02*
X163639523Y-90185000D01*
X163687142Y-90232619D01*
X163734761Y-90185000D01*
X163687142Y-90137380D01*
X163687142Y-90232619D01*
X164115714Y-91089761D02*
X164210952Y-91137380D01*
X164401428Y-91137380D01*
X164496666Y-91089761D01*
X164544285Y-90994523D01*
X164544285Y-90946904D01*
X164496666Y-90851666D01*
X164401428Y-90804047D01*
X164258571Y-90804047D01*
X164163333Y-90756428D01*
X164115714Y-90661190D01*
X164115714Y-90613571D01*
X164163333Y-90518333D01*
X164258571Y-90470714D01*
X164401428Y-90470714D01*
X164496666Y-90518333D01*
X164925238Y-91089761D02*
X165020476Y-91137380D01*
X165210952Y-91137380D01*
X165306190Y-91089761D01*
X165353809Y-90994523D01*
X165353809Y-90946904D01*
X165306190Y-90851666D01*
X165210952Y-90804047D01*
X165068095Y-90804047D01*
X164972857Y-90756428D01*
X164925238Y-90661190D01*
X164925238Y-90613571D01*
X164972857Y-90518333D01*
X165068095Y-90470714D01*
X165210952Y-90470714D01*
X165306190Y-90518333D01*
X165782380Y-91042142D02*
X165830000Y-91089761D01*
X165782380Y-91137380D01*
X165734761Y-91089761D01*
X165782380Y-91042142D01*
X165782380Y-91137380D01*
X166258571Y-90470714D02*
X166258571Y-91470714D01*
X166258571Y-90518333D02*
X166353809Y-90470714D01*
X166544285Y-90470714D01*
X166639523Y-90518333D01*
X166687142Y-90565952D01*
X166734761Y-90661190D01*
X166734761Y-90946904D01*
X166687142Y-91042142D01*
X166639523Y-91089761D01*
X166544285Y-91137380D01*
X166353809Y-91137380D01*
X166258571Y-91089761D01*
X167163333Y-90470714D02*
X167163333Y-91470714D01*
X167163333Y-90518333D02*
X167258571Y-90470714D01*
X167449047Y-90470714D01*
X167544285Y-90518333D01*
X167591904Y-90565952D01*
X167639523Y-90661190D01*
X167639523Y-90946904D01*
X167591904Y-91042142D01*
X167544285Y-91089761D01*
X167449047Y-91137380D01*
X167258571Y-91137380D01*
X167163333Y-91089761D01*
X168068095Y-91042142D02*
X168115714Y-91089761D01*
X168068095Y-91137380D01*
X168020476Y-91089761D01*
X168068095Y-91042142D01*
X168068095Y-91137380D01*
X168496666Y-91089761D02*
X168591904Y-91137380D01*
X168782380Y-91137380D01*
X168877619Y-91089761D01*
X168925238Y-90994523D01*
X168925238Y-90946904D01*
X168877619Y-90851666D01*
X168782380Y-90804047D01*
X168639523Y-90804047D01*
X168544285Y-90756428D01*
X168496666Y-90661190D01*
X168496666Y-90613571D01*
X168544285Y-90518333D01*
X168639523Y-90470714D01*
X168782380Y-90470714D01*
X168877619Y-90518333D01*
X169734761Y-91089761D02*
X169639523Y-91137380D01*
X169449047Y-91137380D01*
X169353809Y-91089761D01*
X169306190Y-90994523D01*
X169306190Y-90613571D01*
X169353809Y-90518333D01*
X169449047Y-90470714D01*
X169639523Y-90470714D01*
X169734761Y-90518333D01*
X169782380Y-90613571D01*
X169782380Y-90708809D01*
X169306190Y-90804047D01*
D11*
X157856666Y-83993333D02*
X157190000Y-83993333D01*
X157123333Y-84660000D01*
X157190000Y-84593333D01*
X157323333Y-84526666D01*
X157656666Y-84526666D01*
X157790000Y-84593333D01*
X157856666Y-84660000D01*
X157923333Y-84793333D01*
X157923333Y-85126666D01*
X157856666Y-85260000D01*
X157790000Y-85326666D01*
X157656666Y-85393333D01*
X157323333Y-85393333D01*
X157190000Y-85326666D01*
X157123333Y-85260000D01*
X159256666Y-85393333D02*
X158456666Y-85393333D01*
X158856666Y-85393333D02*
X158856666Y-83993333D01*
X158723333Y-84193333D01*
X158590000Y-84326666D01*
X158456666Y-84393333D01*
X159790000Y-84126666D02*
X159856666Y-84060000D01*
X159990000Y-83993333D01*
X160323333Y-83993333D01*
X160456666Y-84060000D01*
X160523333Y-84126666D01*
X160590000Y-84260000D01*
X160590000Y-84393333D01*
X160523333Y-84593333D01*
X159723333Y-85393333D01*
X160590000Y-85393333D01*
X162256666Y-85393333D02*
X162256666Y-83993333D01*
X162256666Y-84526666D02*
X162390000Y-84460000D01*
X162656666Y-84460000D01*
X162790000Y-84526666D01*
X162856666Y-84593333D01*
X162923333Y-84726666D01*
X162923333Y-85126666D01*
X162856666Y-85260000D01*
X162790000Y-85326666D01*
X162656666Y-85393333D01*
X162390000Y-85393333D01*
X162256666Y-85326666D01*
X163390000Y-84460000D02*
X163723333Y-85393333D01*
X164056666Y-84460000D02*
X163723333Y-85393333D01*
X163590000Y-85726666D01*
X163523333Y-85793333D01*
X163390000Y-85860000D01*
X164390000Y-84460000D02*
X164923333Y-84460000D01*
X164590000Y-83993333D02*
X164590000Y-85193333D01*
X164656666Y-85326666D01*
X164790000Y-85393333D01*
X164923333Y-85393333D01*
X165923333Y-85326666D02*
X165790000Y-85393333D01*
X165523333Y-85393333D01*
X165390000Y-85326666D01*
X165323333Y-85193333D01*
X165323333Y-84660000D01*
X165390000Y-84526666D01*
X165523333Y-84460000D01*
X165790000Y-84460000D01*
X165923333Y-84526666D01*
X165990000Y-84660000D01*
X165990000Y-84793333D01*
X165323333Y-84926666D01*
X166523333Y-85326666D02*
X166656666Y-85393333D01*
X166923333Y-85393333D01*
X167056666Y-85326666D01*
X167123333Y-85193333D01*
X167123333Y-85126666D01*
X167056666Y-84993333D01*
X166923333Y-84926666D01*
X166723333Y-84926666D01*
X166590000Y-84860000D01*
X166523333Y-84726666D01*
X166523333Y-84660000D01*
X166590000Y-84526666D01*
X166723333Y-84460000D01*
X166923333Y-84460000D01*
X167056666Y-84526666D01*
X168990000Y-85393333D02*
X168856666Y-85326666D01*
X168790000Y-85260000D01*
X168723333Y-85126666D01*
X168723333Y-84726666D01*
X168790000Y-84593333D01*
X168856666Y-84526666D01*
X168990000Y-84460000D01*
X169190000Y-84460000D01*
X169323333Y-84526666D01*
X169390000Y-84593333D01*
X169456666Y-84726666D01*
X169456666Y-85126666D01*
X169390000Y-85260000D01*
X169323333Y-85326666D01*
X169190000Y-85393333D01*
X168990000Y-85393333D01*
X169856666Y-84460000D02*
X170390000Y-84460000D01*
X170056666Y-85393333D02*
X170056666Y-84193333D01*
X170123333Y-84060000D01*
X170256666Y-83993333D01*
X170390000Y-83993333D01*
X157290000Y-87693333D02*
X156823333Y-87026666D01*
X156490000Y-87693333D02*
X156490000Y-86293333D01*
X157023333Y-86293333D01*
X157156666Y-86360000D01*
X157223333Y-86426666D01*
X157290000Y-86560000D01*
X157290000Y-86760000D01*
X157223333Y-86893333D01*
X157156666Y-86960000D01*
X157023333Y-87026666D01*
X156490000Y-87026666D01*
X157823333Y-87293333D02*
X158490000Y-87293333D01*
X157690000Y-87693333D02*
X158156666Y-86293333D01*
X158623333Y-87693333D01*
X159090000Y-87693333D02*
X159090000Y-86293333D01*
X159556666Y-87293333D01*
X160023333Y-86293333D01*
X160023333Y-87693333D01*
X162356666Y-87693333D02*
X162356666Y-86960000D01*
X162290000Y-86826666D01*
X162156666Y-86760000D01*
X161890000Y-86760000D01*
X161756666Y-86826666D01*
X162356666Y-87626666D02*
X162223333Y-87693333D01*
X161890000Y-87693333D01*
X161756666Y-87626666D01*
X161690000Y-87493333D01*
X161690000Y-87360000D01*
X161756666Y-87226666D01*
X161890000Y-87160000D01*
X162223333Y-87160000D01*
X162356666Y-87093333D01*
X162823333Y-86760000D02*
X163356666Y-86760000D01*
X163023333Y-86293333D02*
X163023333Y-87493333D01*
X163090000Y-87626666D01*
X163223333Y-87693333D01*
X163356666Y-87693333D01*
X164823333Y-87626666D02*
X165023333Y-87693333D01*
X165356666Y-87693333D01*
X165490000Y-87626666D01*
X165556666Y-87560000D01*
X165623333Y-87426666D01*
X165623333Y-87293333D01*
X165556666Y-87160000D01*
X165490000Y-87093333D01*
X165356666Y-87026666D01*
X165090000Y-86960000D01*
X164956666Y-86893333D01*
X164890000Y-86826666D01*
X164823333Y-86693333D01*
X164823333Y-86560000D01*
X164890000Y-86426666D01*
X164956666Y-86360000D01*
X165090000Y-86293333D01*
X165423333Y-86293333D01*
X165623333Y-86360000D01*
X165223333Y-86093333D02*
X165223333Y-87893333D01*
X166290000Y-87693333D02*
X166556666Y-87693333D01*
X166690000Y-87626666D01*
X166756666Y-87560000D01*
X166890000Y-87360000D01*
X166956666Y-87093333D01*
X166956666Y-86560000D01*
X166890000Y-86426666D01*
X166823333Y-86360000D01*
X166690000Y-86293333D01*
X166423333Y-86293333D01*
X166290000Y-86360000D01*
X166223333Y-86426666D01*
X166156666Y-86560000D01*
X166156666Y-86893333D01*
X166223333Y-87026666D01*
X166290000Y-87093333D01*
X166423333Y-87160000D01*
X166690000Y-87160000D01*
X166823333Y-87093333D01*
X166890000Y-87026666D01*
X166956666Y-86893333D01*
X167490000Y-86426666D02*
X167556666Y-86360000D01*
X167690000Y-86293333D01*
X168023333Y-86293333D01*
X168156666Y-86360000D01*
X168223333Y-86426666D01*
X168290000Y-86560000D01*
X168290000Y-86693333D01*
X168223333Y-86893333D01*
X167423333Y-87693333D01*
X168290000Y-87693333D01*
X169156666Y-86293333D02*
X169290000Y-86293333D01*
X169423333Y-86360000D01*
X169490000Y-86426666D01*
X169556666Y-86560000D01*
X169623333Y-86826666D01*
X169623333Y-87160000D01*
X169556666Y-87426666D01*
X169490000Y-87560000D01*
X169423333Y-87626666D01*
X169290000Y-87693333D01*
X169156666Y-87693333D01*
X169023333Y-87626666D01*
X168956666Y-87560000D01*
X168890000Y-87426666D01*
X168823333Y-87160000D01*
X168823333Y-86826666D01*
X168890000Y-86560000D01*
X168956666Y-86426666D01*
X169023333Y-86360000D01*
X169156666Y-86293333D01*
X170490000Y-86293333D02*
X170623333Y-86293333D01*
X170756666Y-86360000D01*
X170823333Y-86426666D01*
X170890000Y-86560000D01*
X170956666Y-86826666D01*
X170956666Y-87160000D01*
X170890000Y-87426666D01*
X170823333Y-87560000D01*
X170756666Y-87626666D01*
X170623333Y-87693333D01*
X170490000Y-87693333D01*
X170356666Y-87626666D01*
X170290000Y-87560000D01*
X170223333Y-87426666D01*
X170156666Y-87160000D01*
X170156666Y-86826666D01*
X170223333Y-86560000D01*
X170290000Y-86426666D01*
X170356666Y-86360000D01*
X170490000Y-86293333D01*
D12*
X155675714Y-82948571D02*
X155932857Y-83034285D01*
X156361428Y-83034285D01*
X156532857Y-82948571D01*
X156618571Y-82862857D01*
X156704285Y-82691428D01*
X156704285Y-82520000D01*
X156618571Y-82348571D01*
X156532857Y-82262857D01*
X156361428Y-82177142D01*
X156018571Y-82091428D01*
X155847142Y-82005714D01*
X155761428Y-81920000D01*
X155675714Y-81748571D01*
X155675714Y-81577142D01*
X155761428Y-81405714D01*
X155847142Y-81320000D01*
X156018571Y-81234285D01*
X156447142Y-81234285D01*
X156704285Y-81320000D01*
X158161428Y-82948571D02*
X157990000Y-83034285D01*
X157647142Y-83034285D01*
X157475714Y-82948571D01*
X157390000Y-82777142D01*
X157390000Y-82091428D01*
X157475714Y-81920000D01*
X157647142Y-81834285D01*
X157990000Y-81834285D01*
X158161428Y-81920000D01*
X158247142Y-82091428D01*
X158247142Y-82262857D01*
X157390000Y-82434285D01*
X159018571Y-81834285D02*
X159018571Y-83034285D01*
X159018571Y-82005714D02*
X159104285Y-81920000D01*
X159275714Y-81834285D01*
X159532857Y-81834285D01*
X159704285Y-81920000D01*
X159790000Y-82091428D01*
X159790000Y-83034285D01*
X160561428Y-82948571D02*
X160732857Y-83034285D01*
X161075714Y-83034285D01*
X161247142Y-82948571D01*
X161332857Y-82777142D01*
X161332857Y-82691428D01*
X161247142Y-82520000D01*
X161075714Y-82434285D01*
X160818571Y-82434285D01*
X160647142Y-82348571D01*
X160561428Y-82177142D01*
X160561428Y-82091428D01*
X160647142Y-81920000D01*
X160818571Y-81834285D01*
X161075714Y-81834285D01*
X161247142Y-81920000D01*
X162104285Y-83034285D02*
X162104285Y-81834285D01*
X162104285Y-81234285D02*
X162018571Y-81320000D01*
X162104285Y-81405714D01*
X162190000Y-81320000D01*
X162104285Y-81234285D01*
X162104285Y-81405714D01*
X162961428Y-83034285D02*
X162961428Y-81234285D01*
X162961428Y-81920000D02*
X163132857Y-81834285D01*
X163475714Y-81834285D01*
X163647142Y-81920000D01*
X163732857Y-82005714D01*
X163818571Y-82177142D01*
X163818571Y-82691428D01*
X163732857Y-82862857D01*
X163647142Y-82948571D01*
X163475714Y-83034285D01*
X163132857Y-83034285D01*
X162961428Y-82948571D01*
X164847142Y-83034285D02*
X164675714Y-82948571D01*
X164590000Y-82777142D01*
X164590000Y-81234285D01*
X166218571Y-82948571D02*
X166047142Y-83034285D01*
X165704285Y-83034285D01*
X165532857Y-82948571D01*
X165447142Y-82777142D01*
X165447142Y-82091428D01*
X165532857Y-81920000D01*
X165704285Y-81834285D01*
X166047142Y-81834285D01*
X166218571Y-81920000D01*
X166304285Y-82091428D01*
X166304285Y-82262857D01*
X165447142Y-82434285D01*
X168104285Y-83034285D02*
X167504285Y-82177142D01*
X167075714Y-83034285D02*
X167075714Y-81234285D01*
X167761428Y-81234285D01*
X167932857Y-81320000D01*
X168018571Y-81405714D01*
X168104285Y-81577142D01*
X168104285Y-81834285D01*
X168018571Y-82005714D01*
X167932857Y-82091428D01*
X167761428Y-82177142D01*
X167075714Y-82177142D01*
X168790000Y-82520000D02*
X169647142Y-82520000D01*
X168618571Y-83034285D02*
X169218571Y-81234285D01*
X169818571Y-83034285D01*
X170418571Y-83034285D02*
X170418571Y-81234285D01*
X171018571Y-82520000D01*
X171618571Y-81234285D01*
X171618571Y-83034285D01*
D10*
%TO.C,U5*%
X158785000Y-107705000D02*
X156960000Y-107705000D01*
X158785000Y-126105000D02*
X169135000Y-126105000D01*
X158785000Y-107055000D02*
X169135000Y-107055000D01*
X158785000Y-126105000D02*
X158785000Y-125360000D01*
X169135000Y-126105000D02*
X169135000Y-125360000D01*
X169135000Y-107055000D02*
X169135000Y-107800000D01*
X158785000Y-107055000D02*
X158785000Y-107705000D01*
D13*
%TO.C,U3*%
X141710000Y-106730000D02*
X143510000Y-106730000D01*
X143510000Y-103510000D02*
X140560000Y-103510000D01*
%TO.C,U4*%
X143510000Y-97440000D02*
X140560000Y-97440000D01*
X141710000Y-100660000D02*
X143510000Y-100660000D01*
%TO.C,U1*%
X147080000Y-81670000D02*
X141620000Y-81670000D01*
X147080000Y-132590000D02*
X147080000Y-81670000D01*
X134160000Y-132590000D02*
X147080000Y-132590000D01*
X134160000Y-81670000D02*
X134160000Y-132590000D01*
X139620000Y-81670000D02*
X134160000Y-81670000D01*
X141620000Y-81670000D02*
G75*
G02*
X139620000Y-81670000I-1000000J0D01*
G01*
%TO.C,U2*%
X142620000Y-81670000D02*
X137160000Y-81670000D01*
X137160000Y-81670000D02*
X137160000Y-132590000D01*
X137160000Y-132590000D02*
X150080000Y-132590000D01*
X150080000Y-132590000D02*
X150080000Y-81670000D01*
X150080000Y-81670000D02*
X144620000Y-81670000D01*
X144620000Y-81670000D02*
G75*
G02*
X142620000Y-81670000I-1000000J0D01*
G01*
%TO.C,U5*%
D10*
X163198095Y-105582380D02*
X163198095Y-106391904D01*
X163245714Y-106487142D01*
X163293333Y-106534761D01*
X163388571Y-106582380D01*
X163579047Y-106582380D01*
X163674285Y-106534761D01*
X163721904Y-106487142D01*
X163769523Y-106391904D01*
X163769523Y-105582380D01*
X164721904Y-105582380D02*
X164245714Y-105582380D01*
X164198095Y-106058571D01*
X164245714Y-106010952D01*
X164340952Y-105963333D01*
X164579047Y-105963333D01*
X164674285Y-106010952D01*
X164721904Y-106058571D01*
X164769523Y-106153809D01*
X164769523Y-106391904D01*
X164721904Y-106487142D01*
X164674285Y-106534761D01*
X164579047Y-106582380D01*
X164340952Y-106582380D01*
X164245714Y-106534761D01*
X164198095Y-106487142D01*
%TO.C,U3*%
X141848095Y-101672380D02*
X141848095Y-102481904D01*
X141895714Y-102577142D01*
X141943333Y-102624761D01*
X142038571Y-102672380D01*
X142229047Y-102672380D01*
X142324285Y-102624761D01*
X142371904Y-102577142D01*
X142419523Y-102481904D01*
X142419523Y-101672380D01*
X142800476Y-101672380D02*
X143419523Y-101672380D01*
X143086190Y-102053333D01*
X143229047Y-102053333D01*
X143324285Y-102100952D01*
X143371904Y-102148571D01*
X143419523Y-102243809D01*
X143419523Y-102481904D01*
X143371904Y-102577142D01*
X143324285Y-102624761D01*
X143229047Y-102672380D01*
X142943333Y-102672380D01*
X142848095Y-102624761D01*
X142800476Y-102577142D01*
%TO.C,U4*%
X141848095Y-95602380D02*
X141848095Y-96411904D01*
X141895714Y-96507142D01*
X141943333Y-96554761D01*
X142038571Y-96602380D01*
X142229047Y-96602380D01*
X142324285Y-96554761D01*
X142371904Y-96507142D01*
X142419523Y-96411904D01*
X142419523Y-95602380D01*
X143324285Y-95935714D02*
X143324285Y-96602380D01*
X143086190Y-95554761D02*
X142848095Y-96269047D01*
X143467142Y-96269047D01*
%TO.C,U1*%
X139858095Y-80122380D02*
X139858095Y-80931904D01*
X139905714Y-81027142D01*
X139953333Y-81074761D01*
X140048571Y-81122380D01*
X140239047Y-81122380D01*
X140334285Y-81074761D01*
X140381904Y-81027142D01*
X140429523Y-80931904D01*
X140429523Y-80122380D01*
X141429523Y-81122380D02*
X140858095Y-81122380D01*
X141143809Y-81122380D02*
X141143809Y-80122380D01*
X141048571Y-80265238D01*
X140953333Y-80360476D01*
X140858095Y-80408095D01*
%TO.C,U2*%
X142858095Y-80122380D02*
X142858095Y-80931904D01*
X142905714Y-81027142D01*
X142953333Y-81074761D01*
X143048571Y-81122380D01*
X143239047Y-81122380D01*
X143334285Y-81074761D01*
X143381904Y-81027142D01*
X143429523Y-80931904D01*
X143429523Y-80122380D01*
X143858095Y-80217619D02*
X143905714Y-80170000D01*
X144000952Y-80122380D01*
X144239047Y-80122380D01*
X144334285Y-80170000D01*
X144381904Y-80217619D01*
X144429523Y-80312857D01*
X144429523Y-80408095D01*
X144381904Y-80550952D01*
X143810476Y-81122380D01*
X144429523Y-81122380D01*
%TD*%
M02*
