%TF.GenerationSoftware,KiCad,Pcbnew,(5.1.10)-1*%
%TF.CreationDate,2021-09-20T13:18:37+02:00*%
%TF.ProjectId,SensibleRAM,53656e73-6962-46c6-9552-414d2e6b6963,rev?*%
%TF.SameCoordinates,Original*%
%TF.FileFunction,Soldermask,Bot*%
%TF.FilePolarity,Negative*%
%FSLAX46Y46*%
G04 Gerber Fmt 4.6, Leading zero omitted, Abs format (unit mm)*
G04 Created by KiCad (PCBNEW (5.1.10)-1) date 2021-09-20 13:18:37*
%MOMM*%
%LPD*%
G01*
G04 APERTURE LIST*
%ADD10O,1.600000X1.600000*%
%ADD11R,1.600000X1.600000*%
G04 APERTURE END LIST*
D10*
%TO.C,U1*%
X148240000Y-83000000D03*
X133000000Y-131260000D03*
X148240000Y-85540000D03*
X133000000Y-128720000D03*
X148240000Y-88080000D03*
X133000000Y-126180000D03*
X148240000Y-90620000D03*
X133000000Y-123640000D03*
X148240000Y-93160000D03*
X133000000Y-121100000D03*
X148240000Y-95700000D03*
X133000000Y-118560000D03*
X148240000Y-98240000D03*
X133000000Y-116020000D03*
X148240000Y-100780000D03*
X133000000Y-113480000D03*
X148240000Y-103320000D03*
X133000000Y-110940000D03*
X148240000Y-105860000D03*
X133000000Y-108400000D03*
X148240000Y-108400000D03*
X133000000Y-105860000D03*
X148240000Y-110940000D03*
X133000000Y-103320000D03*
X148240000Y-113480000D03*
X133000000Y-100780000D03*
X148240000Y-116020000D03*
X133000000Y-98240000D03*
X148240000Y-118560000D03*
X133000000Y-95700000D03*
X148240000Y-121100000D03*
X133000000Y-93160000D03*
X148240000Y-123640000D03*
X133000000Y-90620000D03*
X148240000Y-126180000D03*
X133000000Y-88080000D03*
X148240000Y-128720000D03*
X133000000Y-85540000D03*
X148240000Y-131260000D03*
D11*
X133000000Y-83000000D03*
%TD*%
%TO.C,U2*%
X136000000Y-83000000D03*
D10*
X151240000Y-131260000D03*
X136000000Y-85540000D03*
X151240000Y-128720000D03*
X136000000Y-88080000D03*
X151240000Y-126180000D03*
X136000000Y-90620000D03*
X151240000Y-123640000D03*
X136000000Y-93160000D03*
X151240000Y-121100000D03*
X136000000Y-95700000D03*
X151240000Y-118560000D03*
X136000000Y-98240000D03*
X151240000Y-116020000D03*
X136000000Y-100780000D03*
X151240000Y-113480000D03*
X136000000Y-103320000D03*
X151240000Y-110940000D03*
X136000000Y-105860000D03*
X151240000Y-108400000D03*
X136000000Y-108400000D03*
X151240000Y-105860000D03*
X136000000Y-110940000D03*
X151240000Y-103320000D03*
X136000000Y-113480000D03*
X151240000Y-100780000D03*
X136000000Y-116020000D03*
X151240000Y-98240000D03*
X136000000Y-118560000D03*
X151240000Y-95700000D03*
X136000000Y-121100000D03*
X151240000Y-93160000D03*
X136000000Y-123640000D03*
X151240000Y-90620000D03*
X136000000Y-126180000D03*
X151240000Y-88080000D03*
X136000000Y-128720000D03*
X151240000Y-85540000D03*
X136000000Y-131260000D03*
X151240000Y-83000000D03*
%TD*%
M02*
