%TF.GenerationSoftware,KiCad,Pcbnew,(5.1.10)-1*%
%TF.CreationDate,2021-09-20T13:18:37+02:00*%
%TF.ProjectId,SensibleRAM,53656e73-6962-46c6-9552-414d2e6b6963,rev?*%
%TF.SameCoordinates,Original*%
%TF.FileFunction,Copper,L1,Top*%
%TF.FilePolarity,Positive*%
%FSLAX46Y46*%
G04 Gerber Fmt 4.6, Leading zero omitted, Abs format (unit mm)*
G04 Created by KiCad (PCBNEW (5.1.10)-1) date 2021-09-20 13:18:37*
%MOMM*%
%LPD*%
G01*
G04 APERTURE LIST*
%TA.AperFunction,SMDPad,CuDef*%
%ADD10R,2.000000X0.600000*%
%TD*%
%TA.AperFunction,SMDPad,CuDef*%
%ADD11R,1.560000X0.650000*%
%TD*%
%TA.AperFunction,ComponentPad*%
%ADD12O,1.600000X1.600000*%
%TD*%
%TA.AperFunction,ComponentPad*%
%ADD13R,1.600000X1.600000*%
%TD*%
%TA.AperFunction,ViaPad*%
%ADD14C,0.800000*%
%TD*%
%TA.AperFunction,Conductor*%
%ADD15C,0.250000*%
%TD*%
G04 APERTURE END LIST*
D10*
%TO.P,U5,1*%
%TO.N,GND*%
X157800000Y-108285000D03*
%TO.P,U5,2*%
X157800000Y-109555000D03*
%TO.P,U5,3*%
%TO.N,/A7*%
X157800000Y-110825000D03*
%TO.P,U5,4*%
%TO.N,/A6*%
X157800000Y-112095000D03*
%TO.P,U5,5*%
%TO.N,/A5*%
X157800000Y-113365000D03*
%TO.P,U5,6*%
%TO.N,/A4*%
X157800000Y-114635000D03*
%TO.P,U5,7*%
%TO.N,/A3*%
X157800000Y-115905000D03*
%TO.P,U5,8*%
%TO.N,/A2*%
X157800000Y-117175000D03*
%TO.P,U5,9*%
%TO.N,/A1*%
X157800000Y-118445000D03*
%TO.P,U5,10*%
%TO.N,/A0*%
X157800000Y-119715000D03*
%TO.P,U5,11*%
%TO.N,/D0*%
X157800000Y-120985000D03*
%TO.P,U5,12*%
%TO.N,/D1*%
X157800000Y-122255000D03*
%TO.P,U5,13*%
%TO.N,/D2*%
X157800000Y-123525000D03*
%TO.P,U5,14*%
%TO.N,GND*%
X157800000Y-124795000D03*
%TO.P,U5,15*%
%TO.N,/D3*%
X170100000Y-124775000D03*
%TO.P,U5,16*%
%TO.N,/D4*%
X170100000Y-123505000D03*
%TO.P,U5,17*%
%TO.N,/D5*%
X170100000Y-122235000D03*
%TO.P,U5,18*%
%TO.N,/D6*%
X170100000Y-120965000D03*
%TO.P,U5,19*%
%TO.N,/D7*%
X170100000Y-119695000D03*
%TO.P,U5,20*%
%TO.N,MSel*%
X170100000Y-118425000D03*
%TO.P,U5,21*%
%TO.N,GND*%
X170100000Y-117155000D03*
%TO.P,U5,22*%
%TO.N,MSel*%
X170100000Y-115885000D03*
%TO.P,U5,23*%
%TO.N,GND*%
X170100000Y-114615000D03*
%TO.P,U5,24*%
X170100000Y-113345000D03*
%TO.P,U5,25*%
%TO.N,/A8*%
X170100000Y-112075000D03*
%TO.P,U5,26*%
%TO.N,GND*%
X170100000Y-110805000D03*
%TO.P,U5,27*%
%TO.N,/R~W*%
X170100000Y-109535000D03*
%TO.P,U5,28*%
%TO.N,VCC*%
X170100000Y-108265000D03*
%TD*%
D11*
%TO.P,U3,1*%
%TO.N,/A10*%
X141260000Y-104170000D03*
%TO.P,U3,2*%
%TO.N,GND*%
X141260000Y-105120000D03*
%TO.P,U3,3*%
%TO.N,/A11*%
X141260000Y-106070000D03*
%TO.P,U3,4*%
%TO.N,Net-(U3-Pad4)*%
X143960000Y-106070000D03*
%TO.P,U3,6*%
%TO.N,/A13*%
X143960000Y-104170000D03*
%TO.P,U3,5*%
%TO.N,VCC*%
X143960000Y-105120000D03*
%TD*%
%TO.P,U4,5*%
%TO.N,VCC*%
X143960000Y-99050000D03*
%TO.P,U4,6*%
%TO.N,/A12*%
X143960000Y-98100000D03*
%TO.P,U4,4*%
%TO.N,MSel*%
X143960000Y-100000000D03*
%TO.P,U4,3*%
%TO.N,/A9*%
X141260000Y-100000000D03*
%TO.P,U4,2*%
%TO.N,GND*%
X141260000Y-99050000D03*
%TO.P,U4,1*%
%TO.N,Net-(U3-Pad4)*%
X141260000Y-98100000D03*
%TD*%
D12*
%TO.P,U1,40*%
%TO.N,VCC*%
X148240000Y-83000000D03*
%TO.P,U1,20*%
%TO.N,GND*%
X133000000Y-131260000D03*
%TO.P,U1,39*%
%TO.N,/P1*%
X148240000Y-85540000D03*
%TO.P,U1,19*%
%TO.N,/Aud*%
X133000000Y-128720000D03*
%TO.P,U1,38*%
%TO.N,/P2*%
X148240000Y-88080000D03*
%TO.P,U1,18*%
%TO.N,/PotY*%
X133000000Y-126180000D03*
%TO.P,U1,37*%
%TO.N,/LPen*%
X148240000Y-90620000D03*
%TO.P,U1,17*%
%TO.N,/PotX*%
X133000000Y-123640000D03*
%TO.P,U1,36*%
%TO.N,/PP2*%
X148240000Y-93160000D03*
%TO.P,U1,16*%
%TO.N,/D0*%
X133000000Y-121100000D03*
%TO.P,U1,35*%
%TO.N,/PP1*%
X148240000Y-95700000D03*
%TO.P,U1,15*%
%TO.N,/D1*%
X133000000Y-118560000D03*
%TO.P,U1,34*%
%TO.N,/A13*%
X148240000Y-98240000D03*
%TO.P,U1,14*%
%TO.N,/D2*%
X133000000Y-116020000D03*
%TO.P,U1,33*%
%TO.N,/A12*%
X148240000Y-100780000D03*
%TO.P,U1,13*%
%TO.N,/D3*%
X133000000Y-113480000D03*
%TO.P,U1,32*%
%TO.N,/A11*%
X148240000Y-103320000D03*
%TO.P,U1,12*%
%TO.N,/D4*%
X133000000Y-110940000D03*
%TO.P,U1,31*%
%TO.N,/A10*%
X148240000Y-105860000D03*
%TO.P,U1,11*%
%TO.N,/D5*%
X133000000Y-108400000D03*
%TO.P,U1,30*%
%TO.N,/A9*%
X148240000Y-108400000D03*
%TO.P,U1,10*%
%TO.N,/D6*%
X133000000Y-105860000D03*
%TO.P,U1,29*%
%TO.N,/A8*%
X148240000Y-110940000D03*
%TO.P,U1,9*%
%TO.N,/D7*%
X133000000Y-103320000D03*
%TO.P,U1,28*%
%TO.N,/A7*%
X148240000Y-113480000D03*
%TO.P,U1,8*%
%TO.N,/VD8*%
X133000000Y-100780000D03*
%TO.P,U1,27*%
%TO.N,/A6*%
X148240000Y-116020000D03*
%TO.P,U1,7*%
%TO.N,/VD9*%
X133000000Y-98240000D03*
%TO.P,U1,26*%
%TO.N,/A5*%
X148240000Y-118560000D03*
%TO.P,U1,6*%
%TO.N,/VD10*%
X133000000Y-95700000D03*
%TO.P,U1,25*%
%TO.N,/A4*%
X148240000Y-121100000D03*
%TO.P,U1,5*%
%TO.N,/VD11*%
X133000000Y-93160000D03*
%TO.P,U1,24*%
%TO.N,/A3*%
X148240000Y-123640000D03*
%TO.P,U1,4*%
%TO.N,/R~W*%
X133000000Y-90620000D03*
%TO.P,U1,23*%
%TO.N,/A2*%
X148240000Y-126180000D03*
%TO.P,U1,3*%
%TO.N,/LMS*%
X133000000Y-88080000D03*
%TO.P,U1,22*%
%TO.N,/A1*%
X148240000Y-128720000D03*
%TO.P,U1,2*%
%TO.N,/Chrm*%
X133000000Y-85540000D03*
%TO.P,U1,21*%
%TO.N,/A0*%
X148240000Y-131260000D03*
D13*
%TO.P,U1,1*%
%TO.N,N/C*%
X133000000Y-83000000D03*
%TD*%
%TO.P,U2,1*%
%TO.N,N/C*%
X136000000Y-83000000D03*
D12*
%TO.P,U2,21*%
%TO.N,/A0*%
X151240000Y-131260000D03*
%TO.P,U2,2*%
%TO.N,/Chrm*%
X136000000Y-85540000D03*
%TO.P,U2,22*%
%TO.N,/A1*%
X151240000Y-128720000D03*
%TO.P,U2,3*%
%TO.N,/LMS*%
X136000000Y-88080000D03*
%TO.P,U2,23*%
%TO.N,/A2*%
X151240000Y-126180000D03*
%TO.P,U2,4*%
%TO.N,/R~W*%
X136000000Y-90620000D03*
%TO.P,U2,24*%
%TO.N,/A3*%
X151240000Y-123640000D03*
%TO.P,U2,5*%
%TO.N,/VD11*%
X136000000Y-93160000D03*
%TO.P,U2,25*%
%TO.N,/A4*%
X151240000Y-121100000D03*
%TO.P,U2,6*%
%TO.N,/VD10*%
X136000000Y-95700000D03*
%TO.P,U2,26*%
%TO.N,/A5*%
X151240000Y-118560000D03*
%TO.P,U2,7*%
%TO.N,/VD9*%
X136000000Y-98240000D03*
%TO.P,U2,27*%
%TO.N,/A6*%
X151240000Y-116020000D03*
%TO.P,U2,8*%
%TO.N,/VD8*%
X136000000Y-100780000D03*
%TO.P,U2,28*%
%TO.N,/A7*%
X151240000Y-113480000D03*
%TO.P,U2,9*%
%TO.N,/D7*%
X136000000Y-103320000D03*
%TO.P,U2,29*%
%TO.N,/A8*%
X151240000Y-110940000D03*
%TO.P,U2,10*%
%TO.N,/D6*%
X136000000Y-105860000D03*
%TO.P,U2,30*%
%TO.N,/A9*%
X151240000Y-108400000D03*
%TO.P,U2,11*%
%TO.N,/D5*%
X136000000Y-108400000D03*
%TO.P,U2,31*%
%TO.N,/A10*%
X151240000Y-105860000D03*
%TO.P,U2,12*%
%TO.N,/D4*%
X136000000Y-110940000D03*
%TO.P,U2,32*%
%TO.N,/A11*%
X151240000Y-103320000D03*
%TO.P,U2,13*%
%TO.N,/D3*%
X136000000Y-113480000D03*
%TO.P,U2,33*%
%TO.N,/A12*%
X151240000Y-100780000D03*
%TO.P,U2,14*%
%TO.N,/D2*%
X136000000Y-116020000D03*
%TO.P,U2,34*%
%TO.N,/A13*%
X151240000Y-98240000D03*
%TO.P,U2,15*%
%TO.N,/D1*%
X136000000Y-118560000D03*
%TO.P,U2,35*%
%TO.N,/PP1*%
X151240000Y-95700000D03*
%TO.P,U2,16*%
%TO.N,/D0*%
X136000000Y-121100000D03*
%TO.P,U2,36*%
%TO.N,/PP2*%
X151240000Y-93160000D03*
%TO.P,U2,17*%
%TO.N,/PotX*%
X136000000Y-123640000D03*
%TO.P,U2,37*%
%TO.N,/LPen*%
X151240000Y-90620000D03*
%TO.P,U2,18*%
%TO.N,/PotY*%
X136000000Y-126180000D03*
%TO.P,U2,38*%
%TO.N,/P2*%
X151240000Y-88080000D03*
%TO.P,U2,19*%
%TO.N,/Aud*%
X136000000Y-128720000D03*
%TO.P,U2,39*%
%TO.N,/P1*%
X151240000Y-85540000D03*
%TO.P,U2,20*%
%TO.N,GND*%
X136000000Y-131260000D03*
%TO.P,U2,40*%
%TO.N,VCC*%
X151240000Y-83000000D03*
%TD*%
D14*
%TO.N,/D0*%
X161640000Y-121550000D03*
%TO.N,/D1*%
X160970000Y-122570000D03*
%TO.N,/D2*%
X160150000Y-123570000D03*
%TO.N,/D3*%
X162240000Y-120450000D03*
%TO.N,/D4*%
X162920000Y-119420000D03*
%TO.N,/A10*%
X139670000Y-104150000D03*
X145970000Y-108620000D03*
%TO.N,/D5*%
X163530000Y-118310000D03*
%TO.N,/A9*%
X141650000Y-101280000D03*
%TO.N,/D6*%
X164310000Y-117280000D03*
%TO.N,/A8*%
X162010000Y-110900000D03*
%TO.N,/D7*%
X165210000Y-116110000D03*
%TO.N,/R~W*%
X166590000Y-110050000D03*
%TO.N,Net-(U3-Pad4)*%
X142650000Y-106680000D03*
X139340000Y-98110000D03*
%TO.N,MSel*%
X145320000Y-100660000D03*
X167420000Y-115810000D03*
%TD*%
D15*
%TO.N,VCC*%
X148240000Y-83000000D02*
X151240000Y-83000000D01*
X144070000Y-99070000D02*
X143380000Y-99070000D01*
X144070000Y-99070000D02*
X143290009Y-99070000D01*
X143960000Y-99050000D02*
X143270010Y-99050000D01*
X143960000Y-99050000D02*
X143160010Y-99050000D01*
X143160010Y-99050000D02*
X142840009Y-99370001D01*
X142840009Y-99370001D02*
X142840009Y-105000009D01*
X142960000Y-105120000D02*
X143960000Y-105120000D01*
X142840009Y-105000009D02*
X142960000Y-105120000D01*
X143960000Y-99050000D02*
X142990000Y-99050000D01*
X142990000Y-99050000D02*
X142820000Y-98880000D01*
X142820000Y-98880000D02*
X142820000Y-83340000D01*
X143160000Y-83000000D02*
X148240000Y-83000000D01*
X142820000Y-83340000D02*
X143160000Y-83000000D01*
X170100000Y-108265000D02*
X170100000Y-106190000D01*
X170100000Y-106190000D02*
X168010000Y-104100000D01*
X168010000Y-104100000D02*
X156950000Y-104100000D01*
X156950000Y-104100000D02*
X154340000Y-101490000D01*
X154340000Y-101490000D02*
X154340000Y-83520000D01*
X153820000Y-83000000D02*
X151240000Y-83000000D01*
X154340000Y-83520000D02*
X153820000Y-83000000D01*
%TO.N,GND*%
X136000000Y-131260000D02*
X133000000Y-131260000D01*
X141260000Y-99050000D02*
X142120000Y-99050000D01*
X142120000Y-99050000D02*
X142390000Y-99320000D01*
X142390000Y-99320000D02*
X142390000Y-104950000D01*
X142220000Y-105120000D02*
X141260000Y-105120000D01*
X142390000Y-104950000D02*
X142220000Y-105120000D01*
X136000000Y-131260000D02*
X137030000Y-131260000D01*
X137030000Y-131260000D02*
X139030000Y-129260000D01*
X139030000Y-129260000D02*
X139030000Y-105660000D01*
X139570000Y-105120000D02*
X141260000Y-105120000D01*
X139030000Y-105660000D02*
X139570000Y-105120000D01*
X157800000Y-124795000D02*
X157800000Y-128520000D01*
X157800000Y-128520000D02*
X153550000Y-132770000D01*
X153550000Y-132770000D02*
X136460000Y-132770000D01*
X136000000Y-132310000D02*
X136000000Y-131260000D01*
X136460000Y-132770000D02*
X136000000Y-132310000D01*
X172015000Y-117155000D02*
X170100000Y-117155000D01*
X171835000Y-114615000D02*
X170100000Y-114615000D01*
X171745000Y-113345000D02*
X170100000Y-113345000D01*
X172290000Y-115070000D02*
X171835000Y-114615000D01*
X172290000Y-116880000D02*
X172290000Y-115070000D01*
X172015000Y-117155000D02*
X172290000Y-116880000D01*
X172300000Y-117440000D02*
X172015000Y-117155000D01*
X172300000Y-127180000D02*
X172300000Y-117440000D01*
X170960000Y-128520000D02*
X172300000Y-127180000D01*
X157800000Y-128520000D02*
X170960000Y-128520000D01*
X172210000Y-111300000D02*
X171715000Y-110805000D01*
X171715000Y-110805000D02*
X170100000Y-110805000D01*
X172210000Y-112880000D02*
X172210000Y-111300000D01*
X171745000Y-113345000D02*
X172210000Y-112880000D01*
X171715000Y-110805000D02*
X171955000Y-110805000D01*
X171955000Y-110805000D02*
X172440000Y-110320000D01*
X172440000Y-110320000D02*
X172440000Y-109410000D01*
X172440000Y-109410000D02*
X171930000Y-108900000D01*
X171930000Y-108900000D02*
X160360000Y-108900000D01*
X159705000Y-109555000D02*
X157800000Y-109555000D01*
X160360000Y-108900000D02*
X159705000Y-109555000D01*
X157800000Y-109555000D02*
X157800000Y-108285000D01*
X170100000Y-114615000D02*
X170100000Y-113345000D01*
%TO.N,/P1*%
X148240000Y-85540000D02*
X151240000Y-85540000D01*
%TO.N,/Aud*%
X133000000Y-128720000D02*
X136000000Y-128720000D01*
%TO.N,/P2*%
X148240000Y-88080000D02*
X151240000Y-88080000D01*
%TO.N,/PotY*%
X136000000Y-126180000D02*
X133000000Y-126180000D01*
%TO.N,/LPen*%
X148240000Y-90620000D02*
X151240000Y-90620000D01*
%TO.N,/PotX*%
X133000000Y-123640000D02*
X136000000Y-123640000D01*
%TO.N,/PP2*%
X148240000Y-93160000D02*
X151240000Y-93160000D01*
%TO.N,/D0*%
X136000000Y-121100000D02*
X133000000Y-121100000D01*
X161110000Y-121020000D02*
X157835000Y-121020000D01*
X157835000Y-121020000D02*
X157800000Y-120985000D01*
X161640000Y-121550000D02*
X161110000Y-121020000D01*
%TO.N,/PP1*%
X148240000Y-95700000D02*
X151240000Y-95700000D01*
%TO.N,/D1*%
X133000000Y-118560000D02*
X136000000Y-118560000D01*
X160655000Y-122255000D02*
X157800000Y-122255000D01*
X160970000Y-122570000D02*
X160655000Y-122255000D01*
%TO.N,/A13*%
X148240000Y-98240000D02*
X151240000Y-98240000D01*
X143990000Y-104170000D02*
X145260000Y-104170000D01*
X145260000Y-104170000D02*
X146590000Y-102840000D01*
X146590000Y-102840000D02*
X146590000Y-102500000D01*
X146590000Y-102500000D02*
X147060000Y-102030000D01*
X147060000Y-102030000D02*
X152140000Y-102030000D01*
X152140000Y-102030000D02*
X152660000Y-101510000D01*
X152660000Y-101510000D02*
X152660000Y-98640000D01*
X152260000Y-98240000D02*
X151240000Y-98240000D01*
X152660000Y-98640000D02*
X152260000Y-98240000D01*
%TO.N,/D2*%
X136000000Y-116020000D02*
X133000000Y-116020000D01*
X157845000Y-123570000D02*
X157800000Y-123525000D01*
X160150000Y-123570000D02*
X157845000Y-123570000D01*
%TO.N,/A12*%
X148240000Y-100780000D02*
X151240000Y-100780000D01*
X143960000Y-98100000D02*
X145280000Y-98100000D01*
X145280000Y-98100000D02*
X146270000Y-99090000D01*
X146270000Y-99090000D02*
X146270000Y-100230000D01*
X146820000Y-100780000D02*
X148240000Y-100780000D01*
X146270000Y-100230000D02*
X146820000Y-100780000D01*
%TO.N,/D3*%
X133000000Y-113480000D02*
X136000000Y-113480000D01*
X168935000Y-124775000D02*
X170100000Y-124775000D01*
X164610000Y-120450000D02*
X168935000Y-124775000D01*
X162240000Y-120450000D02*
X164610000Y-120450000D01*
%TO.N,/A11*%
X148240000Y-103320000D02*
X151240000Y-103320000D01*
X141290000Y-106070000D02*
X141290000Y-106800000D01*
X141290000Y-106800000D02*
X141920000Y-107430000D01*
X141920000Y-107430000D02*
X145450000Y-107430000D01*
X145450000Y-107430000D02*
X146380000Y-106500000D01*
X146380000Y-106500000D02*
X146380000Y-104060000D01*
X147120000Y-103320000D02*
X148240000Y-103320000D01*
X146380000Y-104060000D02*
X147120000Y-103320000D01*
%TO.N,/D4*%
X136000000Y-110940000D02*
X133000000Y-110940000D01*
X170100000Y-123505000D02*
X168735000Y-123505000D01*
X164650000Y-119420000D02*
X162920000Y-119420000D01*
X168735000Y-123505000D02*
X164650000Y-119420000D01*
%TO.N,/A10*%
X148240000Y-105860000D02*
X151240000Y-105860000D01*
X139690000Y-104170000D02*
X139670000Y-104150000D01*
X141260000Y-104170000D02*
X139690000Y-104170000D01*
X145970000Y-108620000D02*
X146340000Y-108620000D01*
X146340000Y-108620000D02*
X146970000Y-107990000D01*
X146970000Y-107130000D02*
X148240000Y-105860000D01*
X146970000Y-107990000D02*
X146970000Y-107130000D01*
%TO.N,/D5*%
X133000000Y-108400000D02*
X136000000Y-108400000D01*
X168915000Y-122235000D02*
X170100000Y-122235000D01*
X164990000Y-118310000D02*
X168915000Y-122235000D01*
X163530000Y-118310000D02*
X164990000Y-118310000D01*
%TO.N,/A9*%
X148240000Y-108400000D02*
X151240000Y-108400000D01*
X141260000Y-100890000D02*
X141650000Y-101280000D01*
X141260000Y-100000000D02*
X141260000Y-100890000D01*
%TO.N,/D6*%
X133000000Y-105860000D02*
X136000000Y-105860000D01*
X169015000Y-120965000D02*
X170100000Y-120965000D01*
X165330000Y-117280000D02*
X169015000Y-120965000D01*
X164310000Y-117280000D02*
X165330000Y-117280000D01*
%TO.N,/A8*%
X148240000Y-110940000D02*
X151240000Y-110940000D01*
X163185000Y-112075000D02*
X162010000Y-110900000D01*
X170100000Y-112075000D02*
X163185000Y-112075000D01*
%TO.N,/D7*%
X133000000Y-103320000D02*
X136000000Y-103320000D01*
X168855000Y-119695000D02*
X170100000Y-119695000D01*
X165270000Y-116110000D02*
X168855000Y-119695000D01*
X165210000Y-116110000D02*
X165270000Y-116110000D01*
%TO.N,/A7*%
X148240000Y-113480000D02*
X151240000Y-113480000D01*
X151240000Y-113480000D02*
X154340000Y-113480000D01*
X154340000Y-113480000D02*
X154580000Y-113240000D01*
X154580000Y-113240000D02*
X154580000Y-112430000D01*
X156185000Y-110825000D02*
X157800000Y-110825000D01*
X154580000Y-112430000D02*
X156185000Y-110825000D01*
%TO.N,/VD8*%
X133000000Y-100780000D02*
X136000000Y-100780000D01*
%TO.N,/A6*%
X148240000Y-116020000D02*
X151240000Y-116020000D01*
X155855000Y-112095000D02*
X157800000Y-112095000D01*
X155070000Y-112880000D02*
X155855000Y-112095000D01*
X155070000Y-114390000D02*
X155070000Y-112880000D01*
X153440000Y-116020000D02*
X155070000Y-114390000D01*
X151240000Y-116020000D02*
X153440000Y-116020000D01*
%TO.N,/VD9*%
X133000000Y-98240000D02*
X136000000Y-98240000D01*
%TO.N,/A5*%
X148240000Y-118560000D02*
X151240000Y-118560000D01*
X155970000Y-113365000D02*
X157800000Y-113365000D01*
X155610000Y-113725000D02*
X155970000Y-113365000D01*
X155610000Y-114830000D02*
X155610000Y-113725000D01*
X151880000Y-118560000D02*
X155610000Y-114830000D01*
X151240000Y-118560000D02*
X151880000Y-118560000D01*
%TO.N,/VD10*%
X133000000Y-95700000D02*
X136000000Y-95700000D01*
%TO.N,/A4*%
X148240000Y-121100000D02*
X151240000Y-121100000D01*
X156385000Y-114635000D02*
X157800000Y-114635000D01*
X156100000Y-114920000D02*
X156385000Y-114635000D01*
X156100000Y-115410000D02*
X156100000Y-114920000D01*
X152450000Y-119060000D02*
X156100000Y-115410000D01*
X152450000Y-120190000D02*
X152450000Y-119060000D01*
X151540000Y-121100000D02*
X152450000Y-120190000D01*
X151240000Y-121100000D02*
X151540000Y-121100000D01*
%TO.N,/VD11*%
X133000000Y-93160000D02*
X136000000Y-93160000D01*
%TO.N,/A3*%
X148240000Y-123640000D02*
X151240000Y-123640000D01*
X156835000Y-115905000D02*
X157800000Y-115905000D01*
X152960000Y-119780000D02*
X156835000Y-115905000D01*
X152960000Y-122699990D02*
X152960000Y-119780000D01*
X152019990Y-123640000D02*
X152960000Y-122699990D01*
X151240000Y-123640000D02*
X152019990Y-123640000D01*
%TO.N,/R~W*%
X133000000Y-90620000D02*
X136000000Y-90620000D01*
X166590000Y-110050000D02*
X167520000Y-110050000D01*
X168035000Y-109535000D02*
X170100000Y-109535000D01*
X167520000Y-110050000D02*
X168035000Y-109535000D01*
%TO.N,/A2*%
X148240000Y-126180000D02*
X151240000Y-126180000D01*
X156665000Y-117175000D02*
X157800000Y-117175000D01*
X153430000Y-120410000D02*
X156665000Y-117175000D01*
X153430000Y-125269990D02*
X153430000Y-120410000D01*
X152519990Y-126180000D02*
X153430000Y-125269990D01*
X151240000Y-126180000D02*
X152519990Y-126180000D01*
%TO.N,/LMS*%
X133000000Y-88080000D02*
X136000000Y-88080000D01*
%TO.N,/A1*%
X148240000Y-128720000D02*
X151240000Y-128720000D01*
X156715000Y-118445000D02*
X157800000Y-118445000D01*
X153900000Y-121260000D02*
X156715000Y-118445000D01*
X153900000Y-127739990D02*
X153900000Y-121260000D01*
X152919990Y-128720000D02*
X153900000Y-127739990D01*
X151240000Y-128720000D02*
X152919990Y-128720000D01*
%TO.N,/Chrm*%
X133000000Y-85540000D02*
X136000000Y-85540000D01*
%TO.N,/A0*%
X148240000Y-131260000D02*
X151240000Y-131260000D01*
X156615000Y-119715000D02*
X157800000Y-119715000D01*
X154390000Y-121940000D02*
X156615000Y-119715000D01*
X154390000Y-129100000D02*
X154390000Y-121940000D01*
X152230000Y-131260000D02*
X154390000Y-129100000D01*
X151240000Y-131260000D02*
X152230000Y-131260000D01*
%TO.N,Net-(U3-Pad4)*%
X143260000Y-106070000D02*
X142650000Y-106680000D01*
X143960000Y-106070000D02*
X143260000Y-106070000D01*
X139350000Y-98100000D02*
X141260000Y-98100000D01*
X139340000Y-98110000D02*
X139350000Y-98100000D01*
%TO.N,MSel*%
X144660000Y-100000000D02*
X145320000Y-100660000D01*
X143960000Y-100000000D02*
X144660000Y-100000000D01*
X170025000Y-115810000D02*
X170100000Y-115885000D01*
X167420000Y-115810000D02*
X170025000Y-115810000D01*
X170100000Y-118425000D02*
X168655000Y-118425000D01*
X167420000Y-117190000D02*
X167420000Y-115810000D01*
X168655000Y-118425000D02*
X167420000Y-117190000D01*
%TD*%
M02*
