%TF.GenerationSoftware,KiCad,Pcbnew,(5.1.10)-1*%
%TF.CreationDate,2021-09-10T13:11:33+02:00*%
%TF.ProjectId,SensibleRAM,53656e73-6962-46c6-9552-414d2e6b6963,rev?*%
%TF.SameCoordinates,Original*%
%TF.FileFunction,Paste,Top*%
%TF.FilePolarity,Positive*%
%FSLAX46Y46*%
G04 Gerber Fmt 4.6, Leading zero omitted, Abs format (unit mm)*
G04 Created by KiCad (PCBNEW (5.1.10)-1) date 2021-09-10 13:11:33*
%MOMM*%
%LPD*%
G01*
G04 APERTURE LIST*
%ADD10R,2.000000X0.600000*%
%ADD11R,1.560000X0.650000*%
G04 APERTURE END LIST*
D10*
%TO.C,U5*%
X157800000Y-108285000D03*
X157800000Y-109555000D03*
X157800000Y-110825000D03*
X157800000Y-112095000D03*
X157800000Y-113365000D03*
X157800000Y-114635000D03*
X157800000Y-115905000D03*
X157800000Y-117175000D03*
X157800000Y-118445000D03*
X157800000Y-119715000D03*
X157800000Y-120985000D03*
X157800000Y-122255000D03*
X157800000Y-123525000D03*
X157800000Y-124795000D03*
X170100000Y-124775000D03*
X170100000Y-123505000D03*
X170100000Y-122235000D03*
X170100000Y-120965000D03*
X170100000Y-119695000D03*
X170100000Y-118425000D03*
X170100000Y-117155000D03*
X170100000Y-115885000D03*
X170100000Y-114615000D03*
X170100000Y-113345000D03*
X170100000Y-112075000D03*
X170100000Y-110805000D03*
X170100000Y-109535000D03*
X170100000Y-108265000D03*
%TD*%
D11*
%TO.C,U3*%
X141260000Y-104170000D03*
X141260000Y-105120000D03*
X141260000Y-106070000D03*
X143960000Y-106070000D03*
X143960000Y-104170000D03*
X143960000Y-105120000D03*
%TD*%
%TO.C,U4*%
X143960000Y-99050000D03*
X143960000Y-98100000D03*
X143960000Y-100000000D03*
X141260000Y-100000000D03*
X141260000Y-99050000D03*
X141260000Y-98100000D03*
%TD*%
M02*
